<svg xmlns="http://www.w3.org/2000/svg" viewBox="0 0 45 45"><g transform="translate(-10.818-7.818)" color="#000"><path transform="matrix(1.15777 0 0 1.12571-6.778-6.103)" d="m48.727 32.636c0 8.786-6.349 15.909-14.182 15.909-7.832 0-14.182-7.123-14.182-15.909 0-8.786 6.349-15.909 14.182-15.909 7.832 0 14.182 7.123 14.182 15.909" fill="#fff"/><g transform="matrix(.5 0 0 .5 165.39 641.49)"><path d="m-232.47-1254.3c-17.652-17.495-46.14-17.369-63.64.283-17.495 17.651-17.369 46.14.283 63.64 17.652 17.495 46.14 17.369 63.64-.283 17.495-17.651 17.369-46.14-.283-63.64m-10.559 10.654c3.923 3.888 3.951 10.219.063 14.14-3.888 3.922-10.219 3.951-14.14.063-3.923-3.888-3.951-10.219-.063-14.14 3.888-3.922 10.219-3.951 14.14-.063m-28.28.126c3.923 3.888 3.951 10.219.063 14.14-3.888 3.923-10.219 3.951-14.14.063-3.923-3.888-3.951-10.219-.063-14.14 3.888-3.922 10.219-3.951 14.14-.063m28.41 28.16c3.923 3.888 3.951 10.219.063 14.14-3.888 3.922-10.219 3.951-14.14.063-3.923-3.888-3.951-10.219-.063-14.14 3.888-3.923 10.219-3.951 14.14-.063m-28.28.126c3.923 3.888 3.951 10.219.063 14.14-3.888 3.922-10.219 3.951-14.14.063-3.923-3.888-3.951-10.219-.063-14.14 3.888-3.923 10.219-3.951 14.14-.063"/><path d="m-603.16-1114.21c0 6.248-5.224 11.314-11.667 11.314-6.444 0-11.667-5.065-11.667-11.314 0-6.248 5.224-11.314 11.667-11.314 6.444 0 11.667 5.065 11.667 11.314" transform="matrix(.86139 0 0 .88609 279.57-249.26)" fill="#f00"/></g></g></svg>