<svg xmlns="http://www.w3.org/2000/svg" viewBox="0 0 40 40"><g color="#000"><path d="m55.818182 34.909092a23.09091 22.363636 0 1 1 -46.18182 0 23.09091 22.363636 0 1 1 46.18182 0" transform="matrix(.86614 0 0 .89431-8.346-11.22)"/><path d="m46.545455 41.909092a34.636364 34.27273 0 1 1 -69.27273 0 34.636364 34.27273 0 1 1 69.27273 0" transform="matrix(.38495 0 0 .38904 15.416 3.696)" fill="#fff"/><path d="m-10 1.5a12.5 12.5 0 1 1 -25 0 12.5 12.5 0 1 1 25 0" transform="matrix(.53333 0 0 .53333 32 19.2)" fill="#f00"/></g></svg>