<svg height="30" xmlns="http://www.w3.org/2000/svg" viewBox="0 0 40 40"><g color="#000"><path transform="matrix(.86614 0 0 .89431-8.346-11.22)" d="m55.818 34.909c0 12.351-10.338 22.364-23.09 22.364-12.753 0-23.09-10.01-23.09-22.364 0-12.351 10.338-22.364 23.09-22.364 12.753 0 23.09 10.01 23.09 22.364" fill="#f00"/><path transform="matrix(.43307 0 0 .43767 14.843 1.658)" d="m46.545 41.909c0 18.928-15.507 34.27-34.636 34.27-19.13 0-34.636-15.344-34.636-34.27 0-18.928 15.507-34.27 34.636-34.27 19.13 0 34.636 15.344 34.636 34.27" fill="#ff0"/><path transform="matrix(.4 0 0 .4 29 19.4)" d="m-10 1.5c0 6.904-5.596 12.5-12.5 12.5-6.904 0-12.5-5.596-12.5-12.5 0-6.904 5.596-12.5 12.5-12.5 6.904 0 12.5 5.596 12.5 12.5" fill="#f00"/></g></svg>
