<svg xmlns="http://www.w3.org/2000/svg" viewBox="0 0 40 40">
 <path d="m55 29c0-11.05-8.954-20-20-20-11.05 0-20 8.954-20 20 0 11.05 8.954 20 20 20 11.05 0 20-8.954 20-20m-2.222 0c0 3.682-2.985 6.667-6.667 6.667-2.898 0-5.359-1.861-6.278-4.444h-9.667c-.918 2.583-3.379 4.444-6.278 4.444-3.682 0-6.667-2.985-6.667-6.667 0-3.682 2.985-6.667 6.667-6.667 2.898 0 5.359 1.861 6.278 4.444h9.667c.918-2.583 3.379-4.444 6.278-4.444 3.682 0 6.667 2.985 6.667 6.667" fill="#fff" color="#000" transform="translate(-15-9)"/>
</svg>
