<svg xmlns="http://www.w3.org/2000/svg" viewBox="0 0 468.15 140.19">
 <g transform="translate(-121-159.17)">
  <g>
   <flowRoot font-size="40">
    <flowRegion>
     <path d="m-740-1070.49h131.43v171.42h-131.43z"/>
    </flowRegion>
    <flowPara/>
   </flowRoot>
   <flowRoot font-weight="bold" font-size="144">
    <flowRegion>
     <path d="m-1084-1285.64h262v312h-262z"/>
    </flowRegion>
    <flowPara/>
   </flowRoot>
  </g>
  <g color="#000">
   <path d="m200 184.36c-24.853 0-45 20.15-45 45 0 24.853 20.15 45 45 45 24.853 0 45-20.15 45-45 0-24.853-20.15-45-45-45m0 15c16.569 0 30 13.432 30 30 0 16.569-13.431 30-30 30-16.569 0-30-13.432-30-30 0-16.568 13.431-30 30-30" fill="#fff"/>
   <path d="m215 229.35c0 8.284-6.716 15-15 15-8.284 0-15-6.716-15-15 0-8.284 6.716-15 15-15 8.284 0 15 6.716 15 15" fill="#f00"/>
  </g>
  <g transform="translate(851 1232)" fill="#fff">
   <path d="m-720-1072.64h15v115h-15z"/>
   <path d="m-730-1047.64h35v15h-35z"/>
  </g>
  <g fill="#fff">
   <g transform="translate(860 1232)">
    <path d="m-555-1047.64h15l-50 115h-15z"/>
    <path d="m-605-1047.64h-15l35 85 10-15z"/>
   </g>
   <g transform="translate(854 1207)">
    <path d="m-380-1047.64h15v115h-15z"/>
    <path d="m-410-1022.64c-23.472 0-42.5 20.15-42.5 45 0 24.853 19.03 45 42.5 45 23.472 0 42.5-20.15 42.5-45l-.031-1.719c-.872-24.17-19.628-43.28-42.469-43.28m0 15c14.779 0 26.905 12.732 27.469 28.844l.031 1.156c0 16.568-12.312 30-27.5 30-15.188 0-27.5-13.432-27.5-30 0-16.569 12.312-30 27.5-30" color="#000"/>
   </g>
  </g>
  <path d="m365.5 159.17l-2.406.125-2.938.406-3.094.688-4.406 1.406-4.03 1.937-4.719 2.844-4.469 3.813-4.375 5.03-1.188 1.687-2.688 4.781-2.188 5.75-1 4.344-.281 2.094h15.906l.188-1.563.375-1.594.438-1.438.531-1.437.969-1.875 1.344-2 1.469-2.063 1.656-1.687 1.563-1.344 1.531-.969 1.563-.906 1.781-.656 2.406-.781 2.156-.344 2.188-.281 2.5.063 2.75.438 1.563.313 1.563.531 1.938.906 1.25.656 1.281.781 1.063.844 1.531 1.344 1.063 1.25 1 1.375.75 1.344.75 1.781.375 1.25.313 1.563.125 1.594-.188 2.656-.875 3.125-.844 2.563-1.5 3-1.281 2.625-2.781 4-4.938 6.188-13.219 16.375-16.12 19.875-8.75 10.844-9.594 11.844 75 .094v-15.09l-41.5.094 2.531-3.313 4.156-5.281 4.469-5.688 3.469-4.344 3.719-4.688 3.656-4.688 2.688-3.25 2.656-3.344 2.5-3.125 2.375-3.188 2.219-3.313 1.313-2.188 1.875-3.594.844-2.031 1.031-2.5.656-1.875.625-2.188.469-1.781.344-1.875.313-2.031.219-3.188-.094-3.063-.344-2.906-.75-2.906-.813-2.563-.719-1.375-1.281-2.375-1.656-2.656-1.469-2.156-1.625-2-1.781-1.781-1.969-1.75-2.375-1.781-2.031-1.313-2.688-1.313-2.594-1.031-2.219-.625-2.25-.5-2.125-.344-1.969-.188-2.875-.094" fill="#f00"/>
  <g transform="matrix(1 0 0-1 0 458.74)" color="#000">
   <path d="m575.83 261.33c-17.652 17.495-46.14 17.369-63.64-.283-17.495-17.652-17.369-46.14.283-63.64 17.652-17.495 46.14-17.369 63.64.283 17.495 17.652 17.369 46.14-.283 63.64m-10.559-10.654c3.923-3.888 3.951-10.22.063-14.14-3.888-3.923-10.219-3.951-14.14-.063-3.923 3.888-3.951 10.22-.063 14.14 3.888 3.923 10.219 3.951 14.14.063m-28.28-.126c3.923-3.888 3.951-10.22.063-14.14-3.888-3.923-10.219-3.951-14.14-.063-3.923 3.888-3.951 10.22-.063 14.14 3.888 3.923 10.219 3.951 14.14.063m28.41-28.16c3.923-3.888 3.951-10.22.063-14.14-3.888-3.923-10.219-3.951-14.14-.063-3.923 3.888-3.951 10.22-.063 14.14 3.888 3.923 10.219 3.951 14.14.063m-28.28-.126c3.923-3.888 3.951-10.219.063-14.14-3.888-3.923-10.219-3.951-14.14-.063-3.923 3.888-3.951 10.219-.063 14.14 3.888 3.923 10.219 3.951 14.14.063" fill="#fff"/>
   <path d="m-603.16-1114.21c0 6.248-5.224 11.314-11.667 11.314-6.444 0-11.667-5.065-11.667-11.314 0-6.248 5.224-11.314 11.667-11.314 6.444 0 11.667 5.065 11.667 11.314" transform="matrix(.86139 0 0-.88609 1087.87-743.71)" fill="#f00"/>
  </g>
 </g>
</svg>
