<svg xmlns="http://www.w3.org/2000/svg" viewBox="0 0 40 40">
 <path d="m31.545 14.273c6.61 0 12.459 3.207 16.1 8.15l-16.1 16.1-16.1-16.1c3.641-4.943 9.49-8.15 16.1-8.15m17.475 10.275c1.606 2.879 2.525 6.194 2.525 9.725 0 3.595-.965 6.96-2.625 9.875l-9.725-9.775v-.025l9.825-9.8m-34.95 0l9.6 9.6-9.65 9.725c-1.566-2.852-2.475-6.116-2.475-9.6 0-3.531.919-6.846 2.525-9.725m11.4 11.4l5.2 5.2.875.9.875-.9 5-5 10.125 10.15c-3.649 4.852-9.461 7.975-16 7.975-6.642 0-12.513-3.241-16.15-8.225l10.07-10.1" fill="#fff" color="#000" transform="translate(-11.545-14.273)"/>
</svg>
