<?xml version="1.0" encoding="UTF-8" standalone="no"?>
<svg xmlns="http://www.w3.org/2000/svg" xmlns:sodipodi="http://sodipodi.sourceforge.net/DTD/sodipodi-0.dtd" xmlns:inkscape="http://www.inkscape.org/namespaces/inkscape" width="40" height="40" version="1.1">
 <metadata id="metadata3477"/>
 <g id="layer1" inkscape:label="Layer 1" inkscape:groupmode="layer" transform="translate(-7.28125,-6.53125)">
  <g id="g4500" fill="#ffffff">
   <path id="path4433" d="m 27.28125,6.53125 c -11.045695,0 -20,8.954305 -20,20 0,11.045695 8.954305,20 20,20 11.045695,0 20,-8.954305 20,-20 0,-11.045695 -8.954305,-20 -20,-20 z m 0.09375,4.9375 c 8.284271,0 15,6.715729 15,15 0,8.284271 -6.715729,15 -15,15 -8.284271,0 -15,-6.715729 -15,-15 0,-8.284271 6.715729,-15 15,-15 z" inkscape:connector-curvature="0" color="#000000"/>
   <path transform="matrix(1.132353,0,0,1.132353,25.386585,10.913214)" d="m 8,5.2727275 c 0,1.7070619 -1.3838471,3.090909 -3.090909,3.090909 -1.7070619,0 -3.090909,-1.3838471 -3.090909,-3.090909 0,-1.7070619 1.3838471,-3.090909 3.090909,-3.090909 C 6.6161529,2.1818185 8,3.5656656 8,5.2727275 z" sodipodi:ry="3.090909" sodipodi:rx="3.090909" sodipodi:cy="5.2727275" sodipodi:cx="4.909091" id="path4438" sodipodi:type="arc" color="#000000"/>
   <path transform="matrix(1.132353,0,0,1.132353,32.196968,18.477497)" d="m 8,5.2727275 c 0,1.7070619 -1.3838471,3.090909 -3.090909,3.090909 -1.7070619,0 -3.090909,-1.3838471 -3.090909,-3.090909 0,-1.7070619 1.3838471,-3.090909 3.090909,-3.090909 C 6.6161529,2.1818185 8,3.5656656 8,5.2727275 z" sodipodi:ry="3.090909" sodipodi:rx="3.090909" sodipodi:cy="5.2727275" sodipodi:cx="4.909091" id="path4438-4" sodipodi:type="arc" color="#000000"/>
   <path transform="matrix(1.132353,0,0,1.132353,28.432039,28.020275)" d="m 8,5.2727275 c 0,1.7070619 -1.3838471,3.090909 -3.090909,3.090909 -1.7070619,0 -3.090909,-1.3838471 -3.090909,-3.090909 0,-1.7070619 1.3838471,-3.090909 3.090909,-3.090909 C 6.6161529,2.1818185 8,3.5656656 8,5.2727275 z" sodipodi:ry="3.090909" sodipodi:rx="3.090909" sodipodi:cy="5.2727275" sodipodi:cx="4.909091" id="path4438-3" sodipodi:type="arc" color="#000000"/>
   <path transform="matrix(1.132353,0,0,1.132353,11.359403,21.900847)" d="m 8,5.2727275 c 0,1.7070619 -1.3838471,3.090909 -3.090909,3.090909 -1.7070619,0 -3.090909,-1.3838471 -3.090909,-3.090909 0,-1.7070619 1.3838471,-3.090909 3.090909,-3.090909 C 6.6161529,2.1818185 8,3.5656656 8,5.2727275 z" sodipodi:ry="3.090909" sodipodi:rx="3.090909" sodipodi:cy="5.2727275" sodipodi:cx="4.909091" id="path4438-0" sodipodi:type="arc" color="#000000"/>
   <path transform="matrix(1.132353,0,0,1.132353,15.274957,12.787879)" d="m 8,5.2727275 c 0,1.7070619 -1.3838471,3.090909 -3.090909,3.090909 -1.7070619,0 -3.090909,-1.3838471 -3.090909,-3.090909 0,-1.7070619 1.3838471,-3.090909 3.090909,-3.090909 C 6.6161529,2.1818185 8,3.5656656 8,5.2727275 z" sodipodi:ry="3.090909" sodipodi:rx="3.090909" sodipodi:cy="5.2727275" sodipodi:cx="4.909091" id="path4438-6" sodipodi:type="arc" color="#000000"/>
   <path transform="matrix(1.132353,0,0,1.132353,18.742422,30.310491)" d="m 8,5.2727275 c 0,1.7070619 -1.3838471,3.090909 -3.090909,3.090909 -1.7070619,0 -3.090909,-1.3838471 -3.090909,-3.090909 0,-1.7070619 1.3838471,-3.090909 3.090909,-3.090909 C 6.6161529,2.1818185 8,3.5656656 8,5.2727275 z" sodipodi:ry="3.090909" sodipodi:rx="3.090909" sodipodi:cy="5.2727275" sodipodi:cx="4.909091" id="path4438-64" sodipodi:type="arc" color="#000000"/>
   <path transform="matrix(1.132353,0,0,1.132353,21.756128,20.317736)" d="m 8,5.2727275 c 0,1.7070619 -1.3838471,3.090909 -3.090909,3.090909 -1.7070619,0 -3.090909,-1.3838471 -3.090909,-3.090909 0,-1.7070619 1.3838471,-3.090909 3.090909,-3.090909 C 6.6161529,2.1818185 8,3.5656656 8,5.2727275 z" sodipodi:ry="3.090909" sodipodi:rx="3.090909" sodipodi:cy="5.2727275" sodipodi:cx="4.909091" id="path4438-47" sodipodi:type="arc" color="#000000"/>
  </g>
 </g>
</svg>
