<svg xmlns="http://www.w3.org/2000/svg" viewBox="0 0 40 40">
 <path d="m30 9c-11.05 0-20 8.954-20 20 0 11.05 8.954 20 20 20 11.05 0 20-8.954 20-20 0-11.05-8.954-20-20-20m-1.219 4.875c3.872-.13 7.852 1.239 10.875 3.969 6.675 6.03 6.796 16.523.875 23.09l-.063.094c-1.218 1.335-2.648 2.484-4.219 3.375l-.844-1.563c1.409-.799 2.69-1.804 3.781-3 5.344-5.855 5.229-15.348-.719-20.719-5.333-4.816-13.944-4.677-18.781.75-4.284 4.806-4.121 12.545.781 16.844 4.274 3.748 11.06 3.591 14.813-.781l.063-.063c3.164-3.737 2.976-9.623-.844-12.813-3.187-2.661-8.232-2.481-10.875.813-2.111 2.63-1.896 6.709.844 8.781 2.057 1.556 5.232 1.391 6.719-.781.499-.729.717-1.7.594-2.563-.123-.862-.556-1.592-1.344-2.031-.395-.22-1.024-.298-1.5-.188-.476.11-.754.301-.875.75.023-.086.057.341.125.438-.017-.013-.043-.022-.094-.031-.09-.017-.178-.009-.219 0l1.188 1.281c-.334.329-.832.56-1.313.469-.48-.091-.766-.402-.969-.688-.405-.57-.637-1.199-.438-1.938.3-1.113 1.277-1.813 2.219-2.031.942-.218 1.925-.053 2.75.406 1.302.725 2.031 1.997 2.219 3.313.187 1.315-.111 2.728-.875 3.844-2.111 3.085-6.445 3.309-9.25 1.188-3.595-2.719-3.857-7.948-1.156-11.313 3.302-4.114 9.492-4.331 13.406-1.063 4.635 3.87 4.795 10.919.969 15.375-4.426 5.155-12.352 5.346-17.344.969-5.673-4.974-5.858-13.823-.938-19.344 2.758-3.094 6.565-4.714 10.438-4.844" fill="#fff" color="#000" transform="translate(-10-9)"/>
</svg>
