<svg xmlns="http://www.w3.org/2000/svg" viewBox="0 0 40 40">
 <g transform="translate(-15-9)" color="#000">
  <path d="m35 9c-11.05 0-20 8.954-20 20 0 11.05 8.954 20 20 20 11.05 0 20-8.954 20-20 0-11.05-8.954-20-20-20m0 2.219c3.682 0 6.656 2.974 6.656 6.656 0 2.898-1.854 5.363-4.438 6.281v2.625h2.625c.918-2.583 3.383-4.438 6.281-4.438 3.682 0 6.656 2.974 6.656 6.656 0 3.682-2.974 6.656-6.656 6.656-2.898 0-5.363-1.854-6.281-4.438h-2.625v2.625c2.583.918 4.438 3.383 4.438 6.281 0 3.682-2.974 6.656-6.656 6.656-3.682 0-6.656-2.974-6.656-6.656 0-2.898 1.854-5.363 4.438-6.281v-2.625h-2.625c-.918 2.583-3.383 4.438-6.281 4.438-3.682 0-6.656-2.974-6.656-6.656 0-3.682 2.974-6.656 6.656-6.656 2.898 0 5.363 1.854 6.281 4.438h2.625v-2.625c-2.583-.918-4.438-3.383-4.438-6.281 0-3.682 2.974-6.656 6.656-6.656" fill="#fff"/>
  <path transform="matrix(1.33333 0 0 1.33333 51.667 20.333)" d="m-5 6.5a7.5 7.5 0 1 1 -15 0 7.5 7.5 0 1 1 15 0" fill="#f00"/>
 </g>
</svg>
